<svg width="185" height="178" viewBox="0 0 185 178" fill="none" xmlns="http://www.w3.org/2000/svg">
<path d="M20.84 23.96C19.2933 24.04 18.08 24.1333 17.2 24.24C16.32 24.32 15.6533 24.52 15.2 24.84C14.7733 25.1333 14.4267 25.6 14.16 26.24C13.92 26.88 13.6533 27.7867 13.36 28.96L11.6 29.12C11.6 29.12 11.64 28.9333 11.72 28.56C11.8267 28.16 11.9467 27.64 12.08 27C12.24 26.36 12.4 25.64 12.56 24.84C12.72 24.04 12.8667 23.2267 13 22.4L13.4 22.12L16.44 22.56H28.36L31.64 22.12L31.96 22.4C31.88 23.2267 31.8133 24.04 31.76 24.84C31.7333 25.6133 31.72 26.32 31.72 26.96C31.72 27.5733 31.72 28.0667 31.72 28.44C31.72 28.7867 31.72 28.96 31.72 28.96L29.96 29.12C29.9333 27.92 29.8667 26.9867 29.76 26.32C29.68 25.6533 29.4533 25.1733 29.08 24.88C28.7333 24.56 28.16 24.3467 27.36 24.24C26.56 24.1333 25.4533 24.04 24.04 23.96C23.9067 24.5733 23.7333 25.4667 23.52 26.64C23.3333 27.8133 23.12 29.12 22.88 30.56C22.64 32 22.4 33.48 22.16 35C21.9467 36.4933 21.7467 37.9067 21.56 39.24C21.3733 40.5467 21.2133 41.6533 21.08 42.56C20.9733 43.4667 20.92 44.0533 20.92 44.32C20.92 45.04 21.0667 45.56 21.36 45.88C21.6533 46.2 22.1333 46.36 22.8 46.36C23.4933 46.36 24.0267 46.3467 24.4 46.32C24.8 46.2667 25 46.24 25 46.24L25.08 46.4L24.52 48.12C24.52 48.12 24.32 48.1067 23.92 48.08C23.52 48.08 23.0133 48.0667 22.4 48.04C21.8133 48.04 21.2 48.0267 20.56 48C19.92 48 19.3733 48 18.92 48C18.4667 48 17.9467 48 17.36 48C16.7733 48.0267 16.2 48.0533 15.64 48.08C15.1067 48.1067 14.6533 48.12 14.28 48.12C13.9333 48.1467 13.76 48.16 13.76 48.16L14.24 46.56C15.1467 46.48 15.8667 46.3733 16.4 46.24C16.9333 46.08 17.3333 45.84 17.6 45.52C17.8933 45.2 18.12 44.72 18.28 44.08C18.44 43.44 18.5867 42.5867 18.72 41.52L20.84 23.96ZM35.2866 48.48C34.2199 48.48 33.3666 48.1733 32.7266 47.56C32.0866 46.9467 31.7666 46.1333 31.7666 45.12C31.7666 44.6667 31.8599 44.0267 32.0466 43.2C32.2599 42.3467 32.5132 41.4267 32.8066 40.44C33.0999 39.4267 33.3932 38.4267 33.6866 37.44C33.9799 36.4533 34.2199 35.5733 34.4066 34.8C34.6199 34.0267 34.7266 33.4667 34.7266 33.12C34.7266 32.16 34.1666 31.68 33.0466 31.68H31.4066L31.7266 30.16C32.2866 30.16 32.9532 30.1467 33.7266 30.12C34.4999 30.0933 35.2866 30.0667 36.0866 30.04C36.8866 29.9867 37.5932 29.9467 38.2066 29.92L38.5666 30.4C37.8199 32.5067 37.1399 34.5067 36.5266 36.4C35.9399 38.2667 35.4732 39.8667 35.1266 41.2C34.7799 42.5333 34.6066 43.44 34.6066 43.92C34.6066 44.4 34.6999 44.76 34.8866 45C35.0732 45.2133 35.3799 45.32 35.8066 45.32C36.3399 45.32 37.0466 44.7867 37.9266 43.72C38.8066 42.6533 39.7666 41.1733 40.8066 39.28C41.8732 37.3867 42.9399 35.2133 44.0066 32.76L43.5266 39.2L42.5666 38.88C41.3666 41.1733 40.1666 43.12 38.9666 44.72C37.7666 46.2933 36.5399 47.5467 35.2866 48.48ZM42.6066 48.48C41.6466 48.48 41.1666 48.1067 41.1666 47.36C41.1666 47.2 41.2066 46.8933 41.2866 46.44C41.3666 45.9867 41.4866 45.3733 41.6466 44.6C41.8066 43.8 42.0066 42.84 42.2466 41.72C42.4866 40.5733 42.7666 39.2667 43.0866 37.8L43.1266 36.24L44.2866 29.88L44.6466 29.76L47.0466 30.12L47.3266 30.44C46.8999 31.8267 46.4599 33.4133 46.0066 35.2C45.5799 36.96 45.1799 38.7333 44.8066 40.52C44.4332 42.3067 44.1399 43.9467 43.9266 45.44L44.0466 45.6C44.1799 45.6 44.3266 45.56 44.4866 45.48C44.6732 45.3733 44.9666 45.1467 45.3666 44.8C45.7932 44.4533 46.4066 43.9333 47.2066 43.24L47.6866 43.28L48.2066 44.24C47.1132 45.28 46.1932 46.1067 45.4466 46.72C44.7266 47.3333 44.1399 47.7733 43.6866 48.04C43.2332 48.3333 42.8732 48.48 42.6066 48.48ZM51.5378 42.48C51.5378 43.84 51.8711 44.88 52.5378 45.6C53.2045 46.2933 54.1511 46.64 55.3778 46.64C56.1511 46.64 56.8045 46.3867 57.3378 45.88C57.8978 45.3733 58.1778 44.7733 58.1778 44.08C58.1778 43.3867 57.9245 42.76 57.4178 42.2C56.9378 41.6133 56.3511 41.0267 55.6578 40.44C55.0711 39.9333 54.4845 39.4133 53.8978 38.88C53.3378 38.32 52.8578 37.7333 52.4578 37.12C52.0845 36.48 51.8978 35.7867 51.8978 35.04C51.8978 34.0267 52.1778 33.1067 52.7378 32.28C53.3245 31.4267 54.0978 30.7467 55.0578 30.24C56.0178 29.7067 57.0445 29.44 58.1378 29.44C59.0445 29.44 59.8578 29.5867 60.5778 29.88C61.3245 30.1467 61.8845 30.5333 62.2578 31.04C62.0978 31.52 61.8711 32.0667 61.5778 32.68C61.3111 33.2933 61.0845 33.7867 60.8978 34.16H60.3378C60.0445 33.28 59.5911 32.6 58.9778 32.12C58.3645 31.6133 57.6578 31.36 56.8578 31.36C56.2178 31.36 55.6711 31.5733 55.2178 32C54.7911 32.4 54.5778 32.9067 54.5778 33.52C54.5778 33.9467 54.6845 34.36 54.8978 34.76C55.1378 35.16 55.4311 35.5467 55.7778 35.92C56.2311 36.4 56.7378 36.88 57.2978 37.36C57.8845 37.84 58.4445 38.3467 58.9778 38.88C59.5111 39.3867 59.9511 39.9467 60.2978 40.56C60.6445 41.1467 60.8178 41.8 60.8178 42.52C60.8178 43.5333 60.4978 44.5067 59.8578 45.44C59.2445 46.3467 58.4311 47.08 57.4178 47.64C56.4311 48.2 55.3645 48.48 54.2178 48.48C52.9911 48.48 51.9511 48.28 51.0978 47.88C50.2711 47.48 49.7511 46.9333 49.5378 46.24C49.6445 45.84 49.7778 45.4 49.9378 44.92C50.1245 44.4133 50.3111 43.9467 50.4978 43.52C50.6845 43.0667 50.8445 42.72 50.9778 42.48H51.5378ZM72.7703 57.64C71.677 57.64 70.6236 57.3867 69.6103 56.88C68.6236 56.4 67.8236 55.7733 67.2103 55C66.597 54.2267 66.317 53.4267 66.3703 52.6L66.4503 52.4C66.9303 52.0267 67.5436 51.5867 68.2903 51.08C69.037 50.5733 69.8903 50.0133 70.8503 49.4C71.8103 48.7867 72.837 48.16 73.9303 47.52L73.9703 47.16C73.3303 46.7867 72.8236 46.1467 72.4503 45.24C72.1036 44.3333 71.9303 43.2667 71.9303 42.04C71.9303 40.5467 72.1836 39.0667 72.6903 37.6C73.197 36.1067 73.8636 34.76 74.6903 33.56C75.5436 32.36 76.4903 31.4 77.5303 30.68C78.5703 29.96 79.6103 29.6 80.6503 29.6L84.7303 30.24L85.1703 29.24L85.3703 29.2L86.6103 29.8L86.9303 30.16C86.2903 31.3333 85.7436 32.4267 85.2903 33.44C84.8636 34.4267 84.517 35.3333 84.2503 36.16C84.0103 36.9867 83.8503 37.76 83.7703 38.48C83.6903 39.1467 83.6236 39.9333 83.5703 40.84C83.517 41.7467 83.4636 42.68 83.4103 43.64C83.357 44.5733 83.3036 45.44 83.2503 46.24C83.2236 47.0133 83.1836 47.6 83.1303 48C83.0236 48.9333 82.7303 49.8533 82.2503 50.76C81.797 51.6933 81.2103 52.5733 80.4903 53.4C79.797 54.2267 79.0236 54.96 78.1703 55.6C77.317 56.24 76.4236 56.7333 75.4903 57.08C74.557 57.4533 73.6503 57.64 72.7703 57.64ZM74.0903 55.32C75.797 55.32 77.2503 54.7067 78.4503 53.48C79.6503 52.2533 80.3836 50.5733 80.6503 48.44L81.6503 40.16L81.3303 40.08C80.5036 41.6 79.7836 42.84 79.1703 43.8C78.5836 44.7333 78.0103 45.4933 77.4503 46.08C76.917 46.6667 76.3303 47.2 75.6903 47.68C74.8636 48.2933 73.9703 48.8933 73.0103 49.48C72.0503 50.0933 71.2236 50.64 70.5303 51.12C69.8636 51.6267 69.5303 52.0133 69.5303 52.28C69.5303 52.7333 69.757 53.1867 70.2103 53.64C70.6903 54.12 71.277 54.52 71.9703 54.84C72.6903 55.16 73.397 55.32 74.0903 55.32ZM76.2103 44.52C76.6103 44.52 77.157 44.0667 77.8503 43.16C78.5703 42.2267 79.397 40.9067 80.3303 39.2C81.2903 37.4667 82.3303 35.4 83.4503 33C82.917 32.7333 82.397 32.5067 81.8903 32.32C81.4103 32.1333 80.957 32 80.5303 31.92C80.1303 31.8133 79.757 31.76 79.4103 31.76C78.6103 31.76 77.8503 32.1733 77.1303 33C76.4103 33.8 75.8236 34.84 75.3703 36.12C74.917 37.4 74.6903 38.7467 74.6903 40.16C74.6903 41.3067 74.837 42.32 75.1303 43.2C75.4503 44.08 75.8103 44.52 76.2103 44.52ZM92.9038 48.48C91.8371 48.48 90.9838 48.1733 90.3438 47.56C89.7038 46.9467 89.3838 46.1333 89.3838 45.12C89.3838 44.6667 89.4771 44.0267 89.6638 43.2C89.8771 42.3467 90.1304 41.4267 90.4238 40.44C90.7171 39.4267 91.0104 38.4267 91.3038 37.44C91.5971 36.4533 91.8371 35.5733 92.0238 34.8C92.2371 34.0267 92.3438 33.4667 92.3438 33.12C92.3438 32.16 91.7838 31.68 90.6638 31.68H89.0238L89.3438 30.16C89.9038 30.16 90.5704 30.1467 91.3438 30.12C92.1171 30.0933 92.9038 30.0667 93.7038 30.04C94.5038 29.9867 95.2104 29.9467 95.8238 29.92L96.1838 30.4C95.4371 32.5067 94.7571 34.5067 94.1438 36.4C93.5571 38.2667 93.0904 39.8667 92.7438 41.2C92.3971 42.5333 92.2238 43.44 92.2238 43.92C92.2238 44.4 92.3171 44.76 92.5038 45C92.6904 45.2133 92.9971 45.32 93.4238 45.32C93.9571 45.32 94.6638 44.7867 95.5438 43.72C96.4238 42.6533 97.3838 41.1733 98.4238 39.28C99.4904 37.3867 100.557 35.2133 101.624 32.76L101.144 39.2L100.184 38.88C98.9838 41.1733 97.7838 43.12 96.5838 44.72C95.3838 46.2933 94.1571 47.5467 92.9038 48.48ZM100.224 48.48C99.2638 48.48 98.7838 48.1067 98.7838 47.36C98.7838 47.2 98.8238 46.8933 98.9038 46.44C98.9838 45.9867 99.1038 45.3733 99.2638 44.6C99.4238 43.8 99.6238 42.84 99.8638 41.72C100.104 40.5733 100.384 39.2667 100.704 37.8L100.744 36.24L101.904 29.88L102.264 29.76L104.664 30.12L104.944 30.44C104.517 31.8267 104.077 33.4133 103.624 35.2C103.197 36.96 102.797 38.7333 102.424 40.52C102.05 42.3067 101.757 43.9467 101.544 45.44L101.664 45.6C101.797 45.6 101.944 45.56 102.104 45.48C102.29 45.3733 102.584 45.1467 102.984 44.8C103.41 44.4533 104.024 43.9333 104.824 43.24L105.304 43.28L105.824 44.24C104.73 45.28 103.81 46.1067 103.064 46.72C102.344 47.3333 101.757 47.7733 101.304 48.04C100.85 48.3333 100.49 48.48 100.224 48.48ZM109.155 42.48C109.155 43.84 109.488 44.88 110.155 45.6C110.822 46.2933 111.768 46.64 112.995 46.64C113.768 46.64 114.422 46.3867 114.955 45.88C115.515 45.3733 115.795 44.7733 115.795 44.08C115.795 43.3867 115.542 42.76 115.035 42.2C114.555 41.6133 113.968 41.0267 113.275 40.44C112.688 39.9333 112.102 39.4133 111.515 38.88C110.955 38.32 110.475 37.7333 110.075 37.12C109.702 36.48 109.515 35.7867 109.515 35.04C109.515 34.0267 109.795 33.1067 110.355 32.28C110.942 31.4267 111.715 30.7467 112.675 30.24C113.635 29.7067 114.662 29.44 115.755 29.44C116.662 29.44 117.475 29.5867 118.195 29.88C118.942 30.1467 119.502 30.5333 119.875 31.04C119.715 31.52 119.488 32.0667 119.195 32.68C118.928 33.2933 118.702 33.7867 118.515 34.16H117.955C117.662 33.28 117.208 32.6 116.595 32.12C115.982 31.6133 115.275 31.36 114.475 31.36C113.835 31.36 113.288 31.5733 112.835 32C112.408 32.4 112.195 32.9067 112.195 33.52C112.195 33.9467 112.302 34.36 112.515 34.76C112.755 35.16 113.048 35.5467 113.395 35.92C113.848 36.4 114.355 36.88 114.915 37.36C115.502 37.84 116.062 38.3467 116.595 38.88C117.128 39.3867 117.568 39.9467 117.915 40.56C118.262 41.1467 118.435 41.8 118.435 42.52C118.435 43.5333 118.115 44.5067 117.475 45.44C116.862 46.3467 116.048 47.08 115.035 47.64C114.048 48.2 112.982 48.48 111.835 48.48C110.608 48.48 109.568 48.28 108.715 47.88C107.888 47.48 107.368 46.9333 107.155 46.24C107.262 45.84 107.395 45.4 107.555 44.92C107.742 44.4133 107.928 43.9467 108.115 43.52C108.302 43.0667 108.462 42.72 108.595 42.48H109.155ZM130.63 42.88L131.11 43.84C130.363 44.6667 129.603 45.44 128.83 46.16C128.056 46.8533 127.336 47.4133 126.67 47.84C126.03 48.2667 125.496 48.48 125.07 48.48C124.27 48.48 123.656 48.24 123.23 47.76C122.803 47.28 122.643 46.6267 122.75 45.8L124.95 32.08L124.75 31.92L121.99 31.8L121.87 31.6L122.03 30.44L125.23 29.92C125.336 29.1467 125.43 28.4 125.51 27.68C125.616 26.9333 125.696 26.32 125.75 25.84C125.83 25.36 125.87 25.12 125.87 25.12L129.47 23.72L129.71 24.2C129.71 24.2 129.63 24.4667 129.47 25C129.31 25.5333 129.096 26.2533 128.83 27.16C128.59 28.04 128.35 29 128.11 30.04L132.99 30L133.15 30.12L132.83 31.72L128.11 31.68L127.67 31.92L125.23 44.2C125.096 45.1333 125.403 45.6 126.15 45.6C126.523 45.6 127.003 45.4 127.59 45C128.203 44.5733 129.043 43.8533 130.11 42.84L130.63 42.88ZM137.285 48.48C135.979 48.48 134.899 47.8933 134.045 46.72C133.219 45.52 132.805 43.92 132.805 41.92C132.805 40.2667 133.045 38.6933 133.525 37.2C134.005 35.7067 134.672 34.3867 135.525 33.24C136.379 32.0667 137.352 31.1467 138.445 30.48C139.539 29.7867 140.685 29.44 141.885 29.44C143.299 29.44 144.405 29.96 145.205 31C146.032 32.04 146.445 33.5067 146.445 35.4C146.445 37.16 146.205 38.8267 145.725 40.4C145.245 41.9733 144.579 43.3733 143.725 44.6C142.899 45.8 141.925 46.7467 140.805 47.44C139.712 48.1333 138.539 48.48 137.285 48.48ZM138.885 46.28C139.765 46.28 140.552 45.9067 141.245 45.16C141.939 44.4133 142.472 43.3867 142.845 42.08C143.245 40.7467 143.445 39.2533 143.445 37.6C143.445 35.8133 143.152 34.4133 142.565 33.4C142.005 32.36 141.219 31.84 140.205 31.84C139.352 31.84 138.579 32.2 137.885 32.92C137.192 33.6133 136.645 34.5733 136.245 35.8C135.872 37 135.685 38.3733 135.685 39.92C135.685 41.7867 135.979 43.32 136.565 44.52C137.179 45.6933 137.952 46.28 138.885 46.28ZM149.975 42.48C149.975 43.84 150.309 44.88 150.975 45.6C151.642 46.2933 152.589 46.64 153.815 46.64C154.589 46.64 155.242 46.3867 155.775 45.88C156.335 45.3733 156.615 44.7733 156.615 44.08C156.615 43.3867 156.362 42.76 155.855 42.2C155.375 41.6133 154.789 41.0267 154.095 40.44C153.509 39.9333 152.922 39.4133 152.335 38.88C151.775 38.32 151.295 37.7333 150.895 37.12C150.522 36.48 150.335 35.7867 150.335 35.04C150.335 34.0267 150.615 33.1067 151.175 32.28C151.762 31.4267 152.535 30.7467 153.495 30.24C154.455 29.7067 155.482 29.44 156.575 29.44C157.482 29.44 158.295 29.5867 159.015 29.88C159.762 30.1467 160.322 30.5333 160.695 31.04C160.535 31.52 160.309 32.0667 160.015 32.68C159.749 33.2933 159.522 33.7867 159.335 34.16H158.775C158.482 33.28 158.029 32.6 157.415 32.12C156.802 31.6133 156.095 31.36 155.295 31.36C154.655 31.36 154.109 31.5733 153.655 32C153.229 32.4 153.015 32.9067 153.015 33.52C153.015 33.9467 153.122 34.36 153.335 34.76C153.575 35.16 153.869 35.5467 154.215 35.92C154.669 36.4 155.175 36.88 155.735 37.36C156.322 37.84 156.882 38.3467 157.415 38.88C157.949 39.3867 158.389 39.9467 158.735 40.56C159.082 41.1467 159.255 41.8 159.255 42.52C159.255 43.5333 158.935 44.5067 158.295 45.44C157.682 46.3467 156.869 47.08 155.855 47.64C154.869 48.2 153.802 48.48 152.655 48.48C151.429 48.48 150.389 48.28 149.535 47.88C148.709 47.48 148.189 46.9333 147.975 46.24C148.082 45.84 148.215 45.4 148.375 44.92C148.562 44.4133 148.749 43.9467 148.935 43.52C149.122 43.0667 149.282 42.72 149.415 42.48H149.975ZM165.229 48.48C164.562 48.48 164.069 48.28 163.749 47.88C163.429 47.4533 163.269 46.9867 163.269 46.48C163.269 45.7333 163.522 45.0933 164.029 44.56C164.562 44 165.229 43.72 166.029 43.72C166.695 43.72 167.189 43.92 167.509 44.32C167.855 44.6933 168.029 45.16 168.029 45.72C168.029 46.4667 167.762 47.12 167.229 47.68C166.722 48.2133 166.055 48.48 165.229 48.48ZM20.84 77.96C19.2933 78.04 18.08 78.1333 17.2 78.24C16.32 78.32 15.6533 78.52 15.2 78.84C14.7733 79.1333 14.4267 79.6 14.16 80.24C13.92 80.88 13.6533 81.7867 13.36 82.96L11.6 83.12C11.6 83.12 11.64 82.9333 11.72 82.56C11.8267 82.16 11.9467 81.64 12.08 81C12.24 80.36 12.4 79.64 12.56 78.84C12.72 78.04 12.8667 77.2267 13 76.4L13.4 76.12L16.44 76.56H28.36L31.64 76.12L31.96 76.4C31.88 77.2267 31.8133 78.04 31.76 78.84C31.7333 79.6133 31.72 80.32 31.72 80.96C31.72 81.5733 31.72 82.0667 31.72 82.44C31.72 82.7867 31.72 82.96 31.72 82.96L29.96 83.12C29.9333 81.92 29.8667 80.9867 29.76 80.32C29.68 79.6533 29.4533 79.1733 29.08 78.88C28.7333 78.56 28.16 78.3467 27.36 78.24C26.56 78.1333 25.4533 78.04 24.04 77.96C23.9067 78.5733 23.7333 79.4667 23.52 80.64C23.3333 81.8133 23.12 83.12 22.88 84.56C22.64 86 22.4 87.48 22.16 89C21.9467 90.4933 21.7467 91.9067 21.56 93.24C21.3733 94.5467 21.2133 95.6533 21.08 96.56C20.9733 97.4667 20.92 98.0533 20.92 98.32C20.92 99.04 21.0667 99.56 21.36 99.88C21.6533 100.2 22.1333 100.36 22.8 100.36C23.4933 100.36 24.0267 100.347 24.4 100.32C24.8 100.267 25 100.24 25 100.24L25.08 100.4L24.52 102.12C24.52 102.12 24.32 102.107 23.92 102.08C23.52 102.08 23.0133 102.067 22.4 102.04C21.8133 102.04 21.2 102.027 20.56 102C19.92 102 19.3733 102 18.92 102C18.4667 102 17.9467 102 17.36 102C16.7733 102.027 16.2 102.053 15.64 102.08C15.1067 102.107 14.6533 102.12 14.28 102.12C13.9333 102.147 13.76 102.16 13.76 102.16L14.24 100.56C15.1467 100.48 15.8667 100.373 16.4 100.24C16.9333 100.08 17.3333 99.84 17.6 99.52C17.8933 99.2 18.12 98.72 18.28 98.08C18.44 97.44 18.5867 96.5867 18.72 95.52L20.84 77.96ZM35.2866 102.48C34.2199 102.48 33.3666 102.173 32.7266 101.56C32.0866 100.947 31.7666 100.133 31.7666 99.12C31.7666 98.6667 31.8599 98.0267 32.0466 97.2C32.2599 96.3467 32.5132 95.4267 32.8066 94.44C33.0999 93.4267 33.3932 92.4267 33.6866 91.44C33.9799 90.4533 34.2199 89.5733 34.4066 88.8C34.6199 88.0267 34.7266 87.4667 34.7266 87.12C34.7266 86.16 34.1666 85.68 33.0466 85.68H31.4066L31.7266 84.16C32.2866 84.16 32.9532 84.1467 33.7266 84.12C34.4999 84.0933 35.2866 84.0667 36.0866 84.04C36.8866 83.9867 37.5932 83.9467 38.2066 83.92L38.5666 84.4C37.8199 86.5067 37.1399 88.5067 36.5266 90.4C35.9399 92.2667 35.4732 93.8667 35.1266 95.2C34.7799 96.5333 34.6066 97.44 34.6066 97.92C34.6066 98.4 34.6999 98.76 34.8866 99C35.0732 99.2133 35.3799 99.32 35.8066 99.32C36.3399 99.32 37.0466 98.7867 37.9266 97.72C38.8066 96.6533 39.7666 95.1733 40.8066 93.28C41.8732 91.3867 42.9399 89.2133 44.0066 86.76L43.5266 93.2L42.5666 92.88C41.3666 95.1733 40.1666 97.12 38.9666 98.72C37.7666 100.293 36.5399 101.547 35.2866 102.48ZM42.6066 102.48C41.6466 102.48 41.1666 102.107 41.1666 101.36C41.1666 101.2 41.2066 100.893 41.2866 100.44C41.3666 99.9867 41.4866 99.3733 41.6466 98.6C41.8066 97.8 42.0066 96.84 42.2466 95.72C42.4866 94.5733 42.7666 93.2667 43.0866 91.8L43.1266 90.24L44.2866 83.88L44.6466 83.76L47.0466 84.12L47.3266 84.44C46.8999 85.8267 46.4599 87.4133 46.0066 89.2C45.5799 90.96 45.1799 92.7333 44.8066 94.52C44.4332 96.3067 44.1399 97.9467 43.9266 99.44L44.0466 99.6C44.1799 99.6 44.3266 99.56 44.4866 99.48C44.6732 99.3733 44.9666 99.1467 45.3666 98.8C45.7932 98.4533 46.4066 97.9333 47.2066 97.24L47.6866 97.28L48.2066 98.24C47.1132 99.28 46.1932 100.107 45.4466 100.72C44.7266 101.333 44.1399 101.773 43.6866 102.04C43.2332 102.333 42.8732 102.48 42.6066 102.48ZM51.5378 96.48C51.5378 97.84 51.8711 98.88 52.5378 99.6C53.2045 100.293 54.1511 100.64 55.3778 100.64C56.1511 100.64 56.8045 100.387 57.3378 99.88C57.8978 99.3733 58.1778 98.7733 58.1778 98.08C58.1778 97.3867 57.9245 96.76 57.4178 96.2C56.9378 95.6133 56.3511 95.0267 55.6578 94.44C55.0711 93.9333 54.4845 93.4133 53.8978 92.88C53.3378 92.32 52.8578 91.7333 52.4578 91.12C52.0845 90.48 51.8978 89.7867 51.8978 89.04C51.8978 88.0267 52.1778 87.1067 52.7378 86.28C53.3245 85.4267 54.0978 84.7467 55.0578 84.24C56.0178 83.7067 57.0445 83.44 58.1378 83.44C59.0445 83.44 59.8578 83.5867 60.5778 83.88C61.3245 84.1467 61.8845 84.5333 62.2578 85.04C62.0978 85.52 61.8711 86.0667 61.5778 86.68C61.3111 87.2933 61.0845 87.7867 60.8978 88.16H60.3378C60.0445 87.28 59.5911 86.6 58.9778 86.12C58.3645 85.6133 57.6578 85.36 56.8578 85.36C56.2178 85.36 55.6711 85.5733 55.2178 86C54.7911 86.4 54.5778 86.9067 54.5778 87.52C54.5778 87.9467 54.6845 88.36 54.8978 88.76C55.1378 89.16 55.4311 89.5467 55.7778 89.92C56.2311 90.4 56.7378 90.88 57.2978 91.36C57.8845 91.84 58.4445 92.3467 58.9778 92.88C59.5111 93.3867 59.9511 93.9467 60.2978 94.56C60.6445 95.1467 60.8178 95.8 60.8178 96.52C60.8178 97.5333 60.4978 98.5067 59.8578 99.44C59.2445 100.347 58.4311 101.08 57.4178 101.64C56.4311 102.2 55.3645 102.48 54.2178 102.48C52.9911 102.48 51.9511 102.28 51.0978 101.88C50.2711 101.48 49.7511 100.933 49.5378 100.24C49.6445 99.84 49.7778 99.4 49.9378 98.92C50.1245 98.4133 50.3111 97.9467 50.4978 97.52C50.6845 97.0667 50.8445 96.72 50.9778 96.48H51.5378ZM72.1303 102C72.1303 102 72.1836 101.693 72.2903 101.08C72.397 100.44 72.5303 99.6133 72.6903 98.6C72.8503 97.5867 73.0236 96.4933 73.2103 95.32C73.4236 94.1467 73.6103 93.0133 73.7703 91.92C73.9303 90.8267 74.0636 89.88 74.1703 89.08C74.277 88.2533 74.3303 87.7067 74.3303 87.44C74.3303 86.8 74.197 86.3467 73.9303 86.08C73.6903 85.8133 73.2503 85.68 72.6103 85.68H70.9703L71.2503 84.16C71.8636 84.16 72.5303 84.1467 73.2503 84.12C73.997 84.0933 74.7036 84.0667 75.3703 84.04C76.0636 84.0133 76.6236 83.9867 77.0503 83.96C77.5036 83.9333 77.7303 83.92 77.7303 83.92L78.0903 84.4C78.0903 84.4 77.957 84.8133 77.6903 85.64C77.4503 86.4667 77.157 87.52 76.8103 88.8C76.4903 90.0533 76.197 91.3467 75.9303 92.68L76.0903 92.72C76.8636 90.96 77.7036 89.4133 78.6103 88.08C79.517 86.72 80.4103 85.6533 81.2903 84.88C82.1703 84.08 82.957 83.6533 83.6503 83.6C83.8903 83.76 84.0903 84.08 84.2503 84.56C84.437 85.0133 84.5303 85.4933 84.5303 86C84.5303 86.3733 84.5036 86.6933 84.4503 86.96C84.397 87.2 84.3436 87.4 84.2903 87.56C84.237 87.6933 84.1836 87.8 84.1303 87.88C84.077 87.9333 84.0503 87.96 84.0503 87.96L83.6503 88.08C83.517 87.9467 83.3703 87.8533 83.2103 87.8C83.0503 87.72 82.8636 87.68 82.6503 87.68C81.6636 87.68 80.517 88.5067 79.2103 90.16C77.9036 91.8133 76.6636 94.0667 75.4903 96.92L74.8903 101.44C74.8903 101.52 74.717 101.64 74.3703 101.8C74.0503 101.933 73.6903 102.053 73.2903 102.16C72.917 102.293 72.6236 102.36 72.4103 102.36L72.1303 102ZM96.6078 86.56C96.6078 87.68 96.2878 88.6933 95.6478 89.6C95.0078 90.48 93.9945 91.3067 92.6078 92.08C91.2211 92.8533 89.3811 93.6267 87.0878 94.4C86.9811 96.1067 87.1811 97.48 87.6878 98.52C88.2211 99.56 88.9545 100.08 89.8878 100.08C90.6878 100.08 91.4878 99.7733 92.2878 99.16C93.0878 98.52 93.7545 97.68 94.2878 96.64L94.8478 96.68L95.4478 97.64C94.9411 98.5733 94.3278 99.4133 93.6078 100.16C92.8878 100.88 92.1278 101.453 91.3278 101.88C90.5545 102.28 89.7811 102.48 89.0078 102.48C87.5678 102.48 86.4345 101.893 85.6078 100.72C84.7811 99.52 84.3678 97.9067 84.3678 95.88C84.3678 94.3333 84.6211 92.8267 85.1278 91.36C85.6611 89.8667 86.3545 88.5333 87.2078 87.36C88.0878 86.16 89.0611 85.2133 90.1278 84.52C91.2211 83.8 92.3278 83.44 93.4478 83.44C94.4611 83.44 95.2345 83.7067 95.7678 84.24C96.3278 84.7733 96.6078 85.5467 96.6078 86.56ZM92.1678 85.76C91.4745 85.76 90.7811 86.08 90.0878 86.72C89.4211 87.3333 88.8345 88.1733 88.3278 89.24C87.8211 90.28 87.4611 91.44 87.2478 92.72C89.5678 92 91.2345 91.24 92.2478 90.44C93.2611 89.64 93.7678 88.6933 93.7678 87.6C93.7678 86.3733 93.2345 85.76 92.1678 85.76ZM100.192 111.64C99.0989 111.64 98.0455 111.387 97.0322 110.88C96.0455 110.4 95.2455 109.773 94.6322 109C94.0189 108.227 93.7389 107.427 93.7922 106.6L93.8722 106.4C94.3522 106.027 94.9655 105.587 95.7122 105.08C96.4589 104.573 97.3122 104.013 98.2722 103.4C99.2322 102.787 100.259 102.16 101.352 101.52L101.392 101.16C100.752 100.787 100.246 100.147 99.8722 99.24C99.5255 98.3333 99.3522 97.2667 99.3522 96.04C99.3522 94.5467 99.6055 93.0667 100.112 91.6C100.619 90.1067 101.286 88.76 102.112 87.56C102.966 86.36 103.912 85.4 104.952 84.68C105.992 83.96 107.032 83.6 108.072 83.6L112.152 84.24L112.592 83.24L112.792 83.2L114.032 83.8L114.352 84.16C113.712 85.3333 113.166 86.4267 112.712 87.44C112.286 88.4267 111.939 89.3333 111.672 90.16C111.432 90.9867 111.272 91.76 111.192 92.48C111.112 93.1467 111.046 93.9333 110.992 94.84C110.939 95.7467 110.886 96.68 110.832 97.64C110.779 98.5733 110.726 99.44 110.672 100.24C110.646 101.013 110.606 101.6 110.552 102C110.446 102.933 110.152 103.853 109.672 104.76C109.219 105.693 108.632 106.573 107.912 107.4C107.219 108.227 106.446 108.96 105.592 109.6C104.739 110.24 103.846 110.733 102.912 111.08C101.979 111.453 101.072 111.64 100.192 111.64ZM101.512 109.32C103.219 109.32 104.672 108.707 105.872 107.48C107.072 106.253 107.806 104.573 108.072 102.44L109.072 94.16L108.752 94.08C107.926 95.6 107.206 96.84 106.592 97.8C106.006 98.7333 105.432 99.4933 104.872 100.08C104.339 100.667 103.752 101.2 103.112 101.68C102.286 102.293 101.392 102.893 100.432 103.48C99.4722 104.093 98.6455 104.64 97.9522 105.12C97.2855 105.627 96.9522 106.013 96.9522 106.28C96.9522 106.733 97.1789 107.187 97.6322 107.64C98.1122 108.12 98.6989 108.52 99.3922 108.84C100.112 109.16 100.819 109.32 101.512 109.32ZM103.632 98.52C104.032 98.52 104.579 98.0667 105.272 97.16C105.992 96.2267 106.819 94.9067 107.752 93.2C108.712 91.4667 109.752 89.4 110.872 87C110.339 86.7333 109.819 86.5067 109.312 86.32C108.832 86.1333 108.379 86 107.952 85.92C107.552 85.8133 107.179 85.76 106.832 85.76C106.032 85.76 105.272 86.1733 104.552 87C103.832 87.8 103.246 88.84 102.792 90.12C102.339 91.4 102.112 92.7467 102.112 94.16C102.112 95.3067 102.259 96.32 102.552 97.2C102.872 98.08 103.232 98.52 103.632 98.52ZM119.606 99.6C119.819 99.6 120.112 99.4533 120.486 99.16C120.859 98.8667 121.619 98.2267 122.766 97.24L123.246 97.28L123.766 98.24C122.859 99.1467 122.032 99.92 121.286 100.56C120.566 101.2 119.939 101.68 119.406 102C118.899 102.32 118.486 102.48 118.166 102.48C117.339 102.48 116.926 102.093 116.926 101.32C116.926 101.213 116.992 100.707 117.126 99.8C117.259 98.8933 117.432 97.7333 117.646 96.32C117.886 94.88 118.139 93.3067 118.406 91.6C118.672 89.8933 118.939 88.1733 119.206 86.44C119.472 84.7067 119.712 83.1067 119.926 81.64C120.166 80.1467 120.352 78.9067 120.486 77.92C120.619 76.9067 120.686 76.28 120.686 76.04C120.686 74.9733 120.126 74.44 119.006 74.44H117.366L117.606 72.92C118.219 72.92 118.886 72.9067 119.606 72.88C120.352 72.8533 121.059 72.8267 121.726 72.8C122.419 72.7733 122.979 72.7467 123.406 72.72C123.832 72.6933 124.046 72.68 124.046 72.68L124.406 73.16C124.406 73.16 124.312 73.56 124.126 74.36C123.966 75.16 123.739 76.2667 123.446 77.68C123.152 79.0667 122.819 80.6533 122.446 82.44C122.099 84.2 121.739 86.0667 121.366 88.04C120.992 90.0133 120.646 91.9733 120.326 93.92C120.006 95.8667 119.726 97.7067 119.486 99.44L119.606 99.6ZM138.126 99.6C138.259 99.6 138.406 99.56 138.566 99.48C138.752 99.3733 139.046 99.1467 139.446 98.8C139.872 98.4533 140.486 97.9333 141.286 97.24L141.766 97.28L142.286 98.24C141.112 99.36 140.152 100.227 139.406 100.84C138.686 101.453 138.112 101.88 137.686 102.12C137.259 102.36 136.872 102.48 136.526 102.48C136.152 102.48 135.846 102.373 135.606 102.16C135.366 101.973 135.246 101.72 135.246 101.4C135.246 101.107 135.392 100.227 135.686 98.76C136.006 97.2667 136.432 95.3467 136.966 93L136.726 92.92C135.419 95.32 134.166 97.2933 132.966 98.84C131.766 100.36 130.526 101.573 129.246 102.48C128.259 102.48 127.472 102.013 126.886 101.08C126.326 100.12 126.046 98.8 126.046 97.12C126.046 95.4667 126.299 93.84 126.806 92.24C127.339 90.6133 128.046 89.16 128.926 87.88C129.806 86.5733 130.792 85.5333 131.886 84.76C132.979 83.9867 134.086 83.6 135.206 83.6L139.206 84.24L139.566 83.24L139.766 83.2L141.006 83.8L141.326 84.28C140.899 85.6933 140.472 87.3067 140.046 89.12C139.619 90.9067 139.219 92.7067 138.846 94.52C138.499 96.3067 138.219 97.9467 138.006 99.44L138.126 99.6ZM130.086 99.24C130.432 99.24 130.899 98.92 131.486 98.28C132.099 97.6133 132.766 96.72 133.486 95.6C134.232 94.4533 134.992 93.16 135.766 91.72C136.539 90.2533 137.286 88.7067 138.006 87.08C137.392 86.7067 136.712 86.4 135.966 86.16C135.219 85.8933 134.592 85.76 134.086 85.76C133.179 85.76 132.326 86.2 131.526 87.08C130.726 87.96 130.072 89.12 129.566 90.56C129.086 91.9733 128.846 93.5067 128.846 95.16C128.846 96.3333 128.966 97.3067 129.206 98.08C129.446 98.8533 129.739 99.24 130.086 99.24ZM145.483 96.48C145.483 97.84 145.816 98.88 146.483 99.6C147.15 100.293 148.096 100.64 149.323 100.64C150.096 100.64 150.75 100.387 151.283 99.88C151.843 99.3733 152.123 98.7733 152.123 98.08C152.123 97.3867 151.87 96.76 151.363 96.2C150.883 95.6133 150.296 95.0267 149.603 94.44C149.016 93.9333 148.43 93.4133 147.843 92.88C147.283 92.32 146.803 91.7333 146.403 91.12C146.03 90.48 145.843 89.7867 145.843 89.04C145.843 88.0267 146.123 87.1067 146.683 86.28C147.27 85.4267 148.043 84.7467 149.003 84.24C149.963 83.7067 150.99 83.44 152.083 83.44C152.99 83.44 153.803 83.5867 154.523 83.88C155.27 84.1467 155.83 84.5333 156.203 85.04C156.043 85.52 155.816 86.0667 155.523 86.68C155.256 87.2933 155.03 87.7867 154.843 88.16H154.283C153.99 87.28 153.536 86.6 152.923 86.12C152.31 85.6133 151.603 85.36 150.803 85.36C150.163 85.36 149.616 85.5733 149.163 86C148.736 86.4 148.523 86.9067 148.523 87.52C148.523 87.9467 148.63 88.36 148.843 88.76C149.083 89.16 149.376 89.5467 149.723 89.92C150.176 90.4 150.683 90.88 151.243 91.36C151.83 91.84 152.39 92.3467 152.923 92.88C153.456 93.3867 153.896 93.9467 154.243 94.56C154.59 95.1467 154.763 95.8 154.763 96.52C154.763 97.5333 154.443 98.5067 153.803 99.44C153.19 100.347 152.376 101.08 151.363 101.64C150.376 102.2 149.31 102.48 148.163 102.48C146.936 102.48 145.896 102.28 145.043 101.88C144.216 101.48 143.696 100.933 143.483 100.24C143.59 99.84 143.723 99.4 143.883 98.92C144.07 98.4133 144.256 97.9467 144.443 97.52C144.63 97.0667 144.79 96.72 144.923 96.48H145.483ZM160.737 102.48C160.07 102.48 159.577 102.28 159.257 101.88C158.937 101.453 158.777 100.987 158.777 100.48C158.777 99.7333 159.03 99.0933 159.537 98.56C160.07 98 160.737 97.72 161.537 97.72C162.203 97.72 162.697 97.92 163.017 98.32C163.363 98.6933 163.537 99.16 163.537 99.72C163.537 100.467 163.27 101.12 162.737 101.68C162.23 102.213 161.563 102.48 160.737 102.48ZM20.84 131.96C19.2933 132.04 18.08 132.133 17.2 132.24C16.32 132.32 15.6533 132.52 15.2 132.84C14.7733 133.133 14.4267 133.6 14.16 134.24C13.92 134.88 13.6533 135.787 13.36 136.96L11.6 137.12C11.6 137.12 11.64 136.933 11.72 136.56C11.8267 136.16 11.9467 135.64 12.08 135C12.24 134.36 12.4 133.64 12.56 132.84C12.72 132.04 12.8667 131.227 13 130.4L13.4 130.12L16.44 130.56H28.36L31.64 130.12L31.96 130.4C31.88 131.227 31.8133 132.04 31.76 132.84C31.7333 133.613 31.72 134.32 31.72 134.96C31.72 135.573 31.72 136.067 31.72 136.44C31.72 136.787 31.72 136.96 31.72 136.96L29.96 137.12C29.9333 135.92 29.8667 134.987 29.76 134.32C29.68 133.653 29.4533 133.173 29.08 132.88C28.7333 132.56 28.16 132.347 27.36 132.24C26.56 132.133 25.4533 132.04 24.04 131.96C23.9067 132.573 23.7333 133.467 23.52 134.64C23.3333 135.813 23.12 137.12 22.88 138.56C22.64 140 22.4 141.48 22.16 143C21.9467 144.493 21.7467 145.907 21.56 147.24C21.3733 148.547 21.2133 149.653 21.08 150.56C20.9733 151.467 20.92 152.053 20.92 152.32C20.92 153.04 21.0667 153.56 21.36 153.88C21.6533 154.2 22.1333 154.36 22.8 154.36C23.4933 154.36 24.0267 154.347 24.4 154.32C24.8 154.267 25 154.24 25 154.24L25.08 154.4L24.52 156.12C24.52 156.12 24.32 156.107 23.92 156.08C23.52 156.08 23.0133 156.067 22.4 156.04C21.8133 156.04 21.2 156.027 20.56 156C19.92 156 19.3733 156 18.92 156C18.4667 156 17.9467 156 17.36 156C16.7733 156.027 16.2 156.053 15.64 156.08C15.1067 156.107 14.6533 156.12 14.28 156.12C13.9333 156.147 13.76 156.16 13.76 156.16L14.24 154.56C15.1467 154.48 15.8667 154.373 16.4 154.24C16.9333 154.08 17.3333 153.84 17.6 153.52C17.8933 153.2 18.12 152.72 18.28 152.08C18.44 151.44 18.5867 150.587 18.72 149.52L20.84 131.96ZM35.2866 156.48C34.2199 156.48 33.3666 156.173 32.7266 155.56C32.0866 154.947 31.7666 154.133 31.7666 153.12C31.7666 152.667 31.8599 152.027 32.0466 151.2C32.2599 150.347 32.5132 149.427 32.8066 148.44C33.0999 147.427 33.3932 146.427 33.6866 145.44C33.9799 144.453 34.2199 143.573 34.4066 142.8C34.6199 142.027 34.7266 141.467 34.7266 141.12C34.7266 140.16 34.1666 139.68 33.0466 139.68H31.4066L31.7266 138.16C32.2866 138.16 32.9532 138.147 33.7266 138.12C34.4999 138.093 35.2866 138.067 36.0866 138.04C36.8866 137.987 37.5932 137.947 38.2066 137.92L38.5666 138.4C37.8199 140.507 37.1399 142.507 36.5266 144.4C35.9399 146.267 35.4732 147.867 35.1266 149.2C34.7799 150.533 34.6066 151.44 34.6066 151.92C34.6066 152.4 34.6999 152.76 34.8866 153C35.0732 153.213 35.3799 153.32 35.8066 153.32C36.3399 153.32 37.0466 152.787 37.9266 151.72C38.8066 150.653 39.7666 149.173 40.8066 147.28C41.8732 145.387 42.9399 143.213 44.0066 140.76L43.5266 147.2L42.5666 146.88C41.3666 149.173 40.1666 151.12 38.9666 152.72C37.7666 154.293 36.5399 155.547 35.2866 156.48ZM42.6066 156.48C41.6466 156.48 41.1666 156.107 41.1666 155.36C41.1666 155.2 41.2066 154.893 41.2866 154.44C41.3666 153.987 41.4866 153.373 41.6466 152.6C41.8066 151.8 42.0066 150.84 42.2466 149.72C42.4866 148.573 42.7666 147.267 43.0866 145.8L43.1266 144.24L44.2866 137.88L44.6466 137.76L47.0466 138.12L47.3266 138.44C46.8999 139.827 46.4599 141.413 46.0066 143.2C45.5799 144.96 45.1799 146.733 44.8066 148.52C44.4332 150.307 44.1399 151.947 43.9266 153.44L44.0466 153.6C44.1799 153.6 44.3266 153.56 44.4866 153.48C44.6732 153.373 44.9666 153.147 45.3666 152.8C45.7932 152.453 46.4066 151.933 47.2066 151.24L47.6866 151.28L48.2066 152.24C47.1132 153.28 46.1932 154.107 45.4466 154.72C44.7266 155.333 44.1399 155.773 43.6866 156.04C43.2332 156.333 42.8732 156.48 42.6066 156.48ZM69.6156 140.56C69.6156 141.68 69.2956 142.693 68.6556 143.6C68.0156 144.48 67.0023 145.307 65.6156 146.08C64.229 146.853 62.389 147.627 60.0956 148.4C59.989 150.107 60.189 151.48 60.6956 152.52C61.229 153.56 61.9623 154.08 62.8956 154.08C63.6956 154.08 64.4956 153.773 65.2956 153.16C66.0956 152.52 66.7623 151.68 67.2956 150.64L67.8556 150.68L68.4556 151.64C67.949 152.573 67.3356 153.413 66.6156 154.16C65.8956 154.88 65.1356 155.453 64.3356 155.88C63.5623 156.28 62.789 156.48 62.0156 156.48C60.5756 156.48 59.4423 155.893 58.6156 154.72C57.789 153.52 57.3756 151.907 57.3756 149.88C57.3756 148.333 57.629 146.827 58.1356 145.36C58.669 143.867 59.3623 142.533 60.2156 141.36C61.0956 140.16 62.069 139.213 63.1356 138.52C64.229 137.8 65.3356 137.44 66.4556 137.44C67.469 137.44 68.2423 137.707 68.7756 138.24C69.3356 138.773 69.6156 139.547 69.6156 140.56ZM65.1756 139.76C64.4823 139.76 63.789 140.08 63.0956 140.72C62.429 141.333 61.8423 142.173 61.3356 143.24C60.829 144.28 60.469 145.44 60.2556 146.72C62.5756 146 64.2423 145.24 65.2556 144.44C66.269 143.64 66.7756 142.693 66.7756 141.6C66.7756 140.373 66.2423 139.76 65.1756 139.76ZM72.6706 150.48C72.6706 151.84 73.004 152.88 73.6706 153.6C74.3373 154.293 75.284 154.64 76.5106 154.64C77.284 154.64 77.9373 154.387 78.4706 153.88C79.0306 153.373 79.3106 152.773 79.3106 152.08C79.3106 151.387 79.0573 150.76 78.5506 150.2C78.0706 149.613 77.484 149.027 76.7906 148.44C76.204 147.933 75.6173 147.413 75.0306 146.88C74.4706 146.32 73.9906 145.733 73.5906 145.12C73.2173 144.48 73.0306 143.787 73.0306 143.04C73.0306 142.027 73.3106 141.107 73.8706 140.28C74.4573 139.427 75.2306 138.747 76.1906 138.24C77.1506 137.707 78.1773 137.44 79.2706 137.44C80.1773 137.44 80.9906 137.587 81.7106 137.88C82.4573 138.147 83.0173 138.533 83.3906 139.04C83.2306 139.52 83.004 140.067 82.7106 140.68C82.444 141.293 82.2173 141.787 82.0306 142.16H81.4706C81.1773 141.28 80.724 140.6 80.1106 140.12C79.4973 139.613 78.7906 139.36 77.9906 139.36C77.3506 139.36 76.804 139.573 76.3506 140C75.924 140.4 75.7106 140.907 75.7106 141.52C75.7106 141.947 75.8173 142.36 76.0306 142.76C76.2706 143.16 76.564 143.547 76.9106 143.92C77.364 144.4 77.8706 144.88 78.4306 145.36C79.0173 145.84 79.5773 146.347 80.1106 146.88C80.644 147.387 81.084 147.947 81.4306 148.56C81.7773 149.147 81.9506 149.8 81.9506 150.52C81.9506 151.533 81.6306 152.507 80.9906 153.44C80.3773 154.347 79.564 155.08 78.5506 155.64C77.564 156.2 76.4973 156.48 75.3506 156.48C74.124 156.48 73.084 156.28 72.2306 155.88C71.404 155.48 70.884 154.933 70.6706 154.24C70.7773 153.84 70.9106 153.4 71.0706 152.92C71.2573 152.413 71.444 151.947 71.6306 151.52C71.8173 151.067 71.9773 150.72 72.1106 150.48H72.6706ZM83.5453 163.96C84.1586 163.907 84.612 163.693 84.9053 163.32C85.1986 162.973 85.4786 162.307 85.7453 161.32C85.8253 161 85.9586 160.32 86.1453 159.28C86.332 158.267 86.532 157.04 86.7453 155.6C86.9853 154.16 87.2253 152.667 87.4653 151.12C87.7053 149.573 87.9186 148.093 88.1053 146.68C88.3186 145.267 88.4786 144.08 88.5853 143.12C88.7186 142.133 88.7853 141.52 88.7853 141.28C88.7853 140.72 88.652 140.32 88.3853 140.08C88.1186 139.813 87.6786 139.68 87.0653 139.68H85.4253L85.7053 138.16C86.2653 138.16 86.932 138.147 87.7053 138.12C88.4786 138.093 89.2653 138.067 90.0653 138.04C90.8653 137.987 91.572 137.947 92.1853 137.92L92.5453 138.4C91.4786 141.44 90.652 144.573 90.0653 147.8L90.2253 147.92C91.1586 145.973 91.9986 144.347 92.7453 143.04C93.5186 141.707 94.252 140.6 94.9453 139.72C95.6653 138.813 96.3986 138.053 97.1453 137.44C98.3453 137.44 99.3186 138.027 100.065 139.2C100.839 140.347 101.225 141.853 101.225 143.72C101.225 145.24 100.972 146.747 100.465 148.24C99.9853 149.707 99.332 151.053 98.5053 152.28C97.6786 153.507 96.7586 154.493 95.7453 155.24C94.7586 155.96 93.7586 156.32 92.7453 156.32L88.9453 155.8L88.1053 161.6C87.9986 162.347 88.0653 162.853 88.3053 163.12C88.5453 163.413 89.0386 163.56 89.7853 163.56H91.4253L91.4653 163.8L91.2253 165.12C90.3986 165.12 89.492 165.133 88.5053 165.16C87.5453 165.187 86.612 165.213 85.7053 165.24C84.7986 165.293 83.9986 165.347 83.3053 165.4L83.5453 163.96ZM96.6253 140.76C96.2253 140.76 95.6386 141.28 94.8653 142.32C94.1186 143.333 93.2653 144.76 92.3053 146.6C91.372 148.44 90.3986 150.573 89.3853 153C90.1053 153.347 90.9053 153.627 91.7853 153.84C92.692 154.053 93.452 154.16 94.0653 154.16C94.7853 154.16 95.4786 153.747 96.1453 152.92C96.8386 152.067 97.3986 150.987 97.8253 149.68C98.252 148.373 98.4653 147.027 98.4653 145.64C98.4653 144.787 98.372 143.987 98.1853 143.24C98.0253 142.493 97.7986 141.893 97.5053 141.44C97.2386 140.987 96.9453 140.76 96.6253 140.76ZM115.899 153.6C116.032 153.6 116.179 153.56 116.339 153.48C116.526 153.373 116.819 153.147 117.219 152.8C117.646 152.453 118.259 151.933 119.059 151.24L119.539 151.28L120.059 152.24C118.886 153.36 117.926 154.227 117.179 154.84C116.459 155.453 115.886 155.88 115.459 156.12C115.032 156.36 114.646 156.48 114.299 156.48C113.926 156.48 113.619 156.373 113.379 156.16C113.139 155.973 113.019 155.72 113.019 155.4C113.019 155.107 113.166 154.227 113.459 152.76C113.779 151.267 114.206 149.347 114.739 147L114.499 146.92C113.192 149.32 111.939 151.293 110.739 152.84C109.539 154.36 108.299 155.573 107.019 156.48C106.032 156.48 105.246 156.013 104.659 155.08C104.099 154.12 103.819 152.8 103.819 151.12C103.819 149.467 104.072 147.84 104.579 146.24C105.112 144.613 105.819 143.16 106.699 141.88C107.579 140.573 108.566 139.533 109.659 138.76C110.752 137.987 111.859 137.6 112.979 137.6L116.979 138.24L117.339 137.24L117.539 137.2L118.779 137.8L119.099 138.28C118.672 139.693 118.246 141.307 117.819 143.12C117.392 144.907 116.992 146.707 116.619 148.52C116.272 150.307 115.992 151.947 115.779 153.44L115.899 153.6ZM107.859 153.24C108.206 153.24 108.672 152.92 109.259 152.28C109.872 151.613 110.539 150.72 111.259 149.6C112.006 148.453 112.766 147.16 113.539 145.72C114.312 144.253 115.059 142.707 115.779 141.08C115.166 140.707 114.486 140.4 113.739 140.16C112.992 139.893 112.366 139.76 111.859 139.76C110.952 139.76 110.099 140.2 109.299 141.08C108.499 141.96 107.846 143.12 107.339 144.56C106.859 145.973 106.619 147.507 106.619 149.16C106.619 150.333 106.739 151.307 106.979 152.08C107.219 152.853 107.512 153.24 107.859 153.24ZM130.137 139.8C129.31 139.8 128.51 140.227 127.737 141.08C126.963 141.933 126.337 143.04 125.857 144.4C125.377 145.76 125.137 147.187 125.137 148.68C125.137 150.333 125.39 151.653 125.897 152.64C126.403 153.627 127.07 154.12 127.897 154.12C128.697 154.12 129.497 153.8 130.297 153.16C131.123 152.493 131.777 151.653 132.257 150.64L132.817 150.68L133.417 151.64C132.91 152.573 132.297 153.413 131.577 154.16C130.857 154.88 130.097 155.453 129.297 155.88C128.523 156.28 127.75 156.48 126.977 156.48C125.537 156.48 124.403 155.893 123.577 154.72C122.75 153.52 122.337 151.907 122.337 149.88C122.337 148.307 122.59 146.787 123.097 145.32C123.603 143.827 124.283 142.493 125.137 141.32C126.017 140.12 126.99 139.173 128.057 138.48C129.123 137.787 130.23 137.44 131.377 137.44C132.07 137.44 132.71 137.52 133.297 137.68C133.91 137.813 134.403 138.013 134.777 138.28L134.977 138.72L133.617 141.4L133.057 141.52C132.23 140.373 131.257 139.8 130.137 139.8ZM140.047 153.6C140.26 153.6 140.553 153.453 140.927 153.16C141.3 152.867 142.06 152.227 143.207 151.24L143.687 151.28L144.207 152.24C143.273 153.2 142.433 154 141.687 154.64C140.967 155.253 140.353 155.707 139.847 156C139.34 156.32 138.927 156.48 138.607 156.48C137.807 156.48 137.407 156.013 137.407 155.08C137.807 152.76 138.153 150.613 138.447 148.64C138.767 146.667 139.007 145.027 139.167 143.72C139.353 142.413 139.447 141.627 139.447 141.36C139.447 140.747 139.313 140.32 139.047 140.08C138.807 139.813 138.38 139.68 137.767 139.68H136.127L136.407 138.16C136.967 138.16 137.633 138.147 138.407 138.12C139.18 138.093 139.967 138.067 140.767 138.04C141.567 137.987 142.273 137.947 142.887 137.92L143.247 138.4C142.82 139.813 142.38 141.413 141.927 143.2C141.5 144.96 141.113 146.733 140.767 148.52C140.42 150.307 140.14 151.947 139.927 153.44L140.047 153.6ZM141.527 132.88C140.94 132.88 140.513 132.693 140.247 132.32C139.98 131.947 139.847 131.533 139.847 131.08C139.847 130.387 140.1 129.787 140.607 129.28C141.113 128.747 141.727 128.48 142.447 128.48C143.033 128.48 143.46 128.667 143.727 129.04C144.02 129.413 144.167 129.827 144.167 130.28C144.167 130.973 143.9 131.587 143.367 132.12C142.86 132.627 142.247 132.88 141.527 132.88ZM151.113 156.48C149.807 156.48 148.727 155.893 147.873 154.72C147.047 153.52 146.633 151.92 146.633 149.92C146.633 148.267 146.873 146.693 147.353 145.2C147.833 143.707 148.5 142.387 149.353 141.24C150.207 140.067 151.18 139.147 152.273 138.48C153.367 137.787 154.513 137.44 155.713 137.44C157.127 137.44 158.233 137.96 159.033 139C159.86 140.04 160.273 141.507 160.273 143.4C160.273 145.16 160.033 146.827 159.553 148.4C159.073 149.973 158.407 151.373 157.553 152.6C156.727 153.8 155.753 154.747 154.633 155.44C153.54 156.133 152.367 156.48 151.113 156.48ZM152.713 154.28C153.593 154.28 154.38 153.907 155.073 153.16C155.767 152.413 156.3 151.387 156.673 150.08C157.073 148.747 157.273 147.253 157.273 145.6C157.273 143.813 156.98 142.413 156.393 141.4C155.833 140.36 155.047 139.84 154.033 139.84C153.18 139.84 152.407 140.2 151.713 140.92C151.02 141.613 150.473 142.573 150.073 143.8C149.7 145 149.513 146.373 149.513 147.92C149.513 149.787 149.807 151.32 150.393 152.52C151.007 153.693 151.78 154.28 152.713 154.28ZM164.682 156.48C164.015 156.48 163.522 156.28 163.202 155.88C162.882 155.453 162.722 154.987 162.722 154.48C162.722 153.733 162.975 153.093 163.482 152.56C164.015 152 164.682 151.72 165.482 151.72C166.149 151.72 166.642 151.92 166.962 152.32C167.309 152.693 167.482 153.16 167.482 153.72C167.482 154.467 167.215 155.12 166.682 155.68C166.175 156.213 165.509 156.48 164.682 156.48Z" fill="white"/>
</svg>
